<svg width="152" height="31" viewBox="0 0 152 31" fill="none" xmlns="http://www.w3.org/2000/svg">
    <g clip-path="url(#clip0_8608_4190)">
        <path d="M4.98008 20.4438C4.98008 22.2259 5.3665 23.5941 5.87156 24.4218C6.53376 25.506 7.52143 25.9653 8.52835 25.9653C9.82709 25.9653 11.0152 25.6391 13.3048 22.4336C15.1391 19.8643 17.3004 16.258 18.7547 13.9971L21.2175 10.1667C22.9283 7.50654 24.9084 4.54937 27.1788 2.54492C29.0323 0.908901 31.0317 0 33.044 0C36.4223 0 39.6403 1.98173 42.103 5.69848C44.7983 9.76906 46.1067 14.8962 46.1067 20.1873C46.1067 23.3328 45.4942 25.644 44.452 27.4699C43.4451 29.2358 41.4825 31 38.1812 31V25.9653C41.0079 25.9653 41.7134 23.336 41.7134 20.3269C41.7134 16.0388 40.7257 11.2801 38.55 7.87984C37.0059 5.46801 35.0049 3.99429 32.8035 3.99429C30.4224 3.99429 28.5064 5.81209 26.3531 9.0533C25.2083 10.7753 24.033 12.8739 22.7134 15.2419L21.2608 17.8469C18.3426 23.0845 17.6035 24.2774 16.1444 26.2461C13.587 29.6935 11.4032 31 8.52835 31C5.11797 31 2.96143 29.5052 1.62582 27.2524C0.535527 25.4168 0 23.0082 0 20.2636L4.98008 20.4438Z" fill="#0081FB"/>
        <path d="M3.92578 6.05393C6.20899 2.49136 9.50392 0 13.2831 0C15.4717 0 17.6475 0.655707 19.9195 2.53356C22.4047 4.5867 25.0535 7.96749 28.358 13.5394L29.5429 15.539C32.4033 20.3626 34.0308 22.8442 34.9832 24.0145C36.2081 25.5174 37.0659 25.9653 38.1803 25.9653C41.007 25.9653 41.7125 23.336 41.7125 20.3269L46.1058 20.1873C46.1058 23.3328 45.4933 25.644 44.4511 27.4699C43.4442 29.2358 41.4816 31 38.1803 31C36.128 31 34.3097 30.5488 32.2991 28.6287C30.7535 27.155 28.9465 24.5371 27.5563 22.1837L23.4212 15.1916C21.3465 11.6826 19.4432 9.06628 18.3417 7.88147C17.1568 6.60738 15.6336 5.06874 13.2029 5.06874C11.2356 5.06874 9.56485 6.46618 8.16671 8.60372L3.92578 6.05393Z" fill="url(#paint0_linear_8608_4190)"/>
        <path d="M13.2038 5.06874C11.2365 5.06874 9.56574 6.46618 8.16759 8.60372C6.19063 11.6242 4.98008 16.1232 4.98008 20.4438C4.98008 22.2259 5.3665 23.5941 5.87156 24.4218L1.62582 27.2524C0.535527 25.4168 0 23.0082 0 20.2636C0 15.2728 1.35325 10.0709 3.92667 6.05393C6.20987 2.49136 9.50481 0 13.284 0L13.2038 5.06874Z" fill="url(#paint1_linear_8608_4190)"/>
        <path d="M55.7871 0.980469H61.548L71.3431 18.9183L81.1397 0.980469H86.7756V30.4548H82.0761V7.86539L73.4852 23.5082H69.0759L60.4866 7.86539V30.4548H55.7871V0.980469ZM101.501 11.97C98.1307 11.97 96.1008 14.5377 95.615 17.7172H107.053C106.818 14.4419 104.951 11.97 101.501 11.97ZM90.9556 19.5285C90.9556 12.8384 95.2269 7.96926 101.583 7.96926C107.834 7.96926 111.567 12.7767 111.567 19.8856V21.1921H95.615C96.181 24.6508 98.4481 26.9815 102.104 26.9815C105.02 26.9815 106.843 26.0807 108.572 24.4333L111.068 27.5285C108.716 29.718 105.724 30.9807 101.937 30.9807C95.057 30.9807 90.9556 25.9022 90.9556 19.5285ZM117.265 12.392H112.939V8.49675H117.265V2.05492H121.8V8.49675H128.372V12.392H121.8V22.265C121.8 25.636 122.864 26.8338 125.481 26.8338C126.676 26.8338 127.36 26.7299 128.372 26.5595V30.4126C127.112 30.7729 125.909 30.9385 124.607 30.9385C119.712 30.9385 117.265 28.2313 117.265 22.8119V12.392ZM147.465 16.1802C146.554 13.8528 144.523 12.1388 141.537 12.1388C137.657 12.1388 135.173 14.9256 135.173 19.4652C135.173 23.8913 137.46 26.8127 141.351 26.8127C144.41 26.8127 146.594 25.0112 147.465 22.7697V16.1802ZM151.999 30.4548H147.548V27.3808C146.304 29.1905 144.04 30.9807 140.373 30.9807C134.476 30.9807 130.535 25.9833 130.535 19.4652C130.535 12.8854 134.571 7.96926 140.623 7.96926C143.615 7.96926 145.963 9.18005 147.548 11.3176V8.49675H151.999V30.4548Z" fill="#192830"/>
    </g>
    <defs>
        <linearGradient id="paint0_linear_8608_4190" x1="9.77971" y1="18.9895" x2="41.5285" y2="20.5736" gradientUnits="userSpaceOnUse">
            <stop stop-color="#0064E1"/>
            <stop offset="0.4" stop-color="#0064E1"/>
            <stop offset="0.83" stop-color="#0073EE"/>
            <stop offset="1" stop-color="#0082FB"/>
        </linearGradient>
        <linearGradient id="paint1_linear_8608_4190" x1="7.21519" y1="22.5602" x2="7.21519" y2="10.712" gradientUnits="userSpaceOnUse">
            <stop stop-color="#0082FB"/>
            <stop offset="1" stop-color="#0064E0"/>
        </linearGradient>
        <clipPath id="clip0_8608_4190">
            <rect width="152" height="31" fill="white"/>
        </clipPath>
    </defs>
</svg>
